<?xml version="1.0" encoding="UTF-8"?>
<svg version="1.1" xmlns="http://www.w3.org/2000/svg" width="3200" height="3200">
<path d="M0 0 C1056 0 2112 0 3200 0 C3200 1056 3200 2112 3200 3200 C2144 3200 1088 3200 0 3200 C0 2144 0 1088 0 0 Z " fill="#1D1D1D" transform="translate(0,0)"/>
<path d="M0 0 C63.36 0 126.72 0 192 0 C206.93006993 18.12937063 206.93006993 18.12937063 213.4453125 26.6953125 C216.90117702 31.20355765 220.51382535 35.58481247 224.10913086 39.98193359 C227.66936409 44.34257803 231.16764569 48.74499562 234.625 53.1875 C238.58617507 58.27082909 242.68405904 63.21173668 246.87548828 68.10620117 C250.18840747 71.99284971 253.36654612 75.96769568 256.5 80 C260.98195755 85.76491192 265.63552266 91.35616078 270.375 96.91015625 C274.32604226 101.54425516 278.15791436 106.27555473 282 111 C284.99599349 114.66995043 287.99639671 118.33627603 291 122 C291.52255371 122.63744141 292.04510742 123.27488281 292.58349609 123.93164062 C298.63361178 131.30721725 304.69309082 138.67179213 310.875 145.9375 C314.59005576 150.30600753 318.22320544 154.72833386 321.78515625 159.22265625 C324.6009978 162.75363216 327.45802216 166.25024119 330.3125 169.75 C334.47264779 174.8536741 338.57967518 179.99242052 342.625 185.1875 C346.65967105 190.36383787 350.83022035 195.40258852 355.09082031 200.39404297 C358.40222082 204.27706836 361.61568518 208.22354858 364.78515625 212.22265625 C367.6009978 215.75363216 370.45802216 219.25024119 373.3125 222.75 C377.47264665 227.85367271 381.57972789 232.99238065 385.625 238.1875 C389.5886014 243.27363229 393.68990285 248.21634116 397.88208008 253.11499023 C401.60046176 257.47953203 405.14505256 261.96238696 408.6640625 266.48828125 C412.94111672 271.97013947 417.36692605 277.32298793 421.8034668 282.67602539 C425.48283461 287.12644275 429.08496968 291.62571165 432.625 296.1875 C436.76627411 301.51893499 441.09469514 306.6537197 445.52001953 311.75073242 C448.96991569 315.74402903 452.26868857 319.82840605 455.5 324 C459.73039886 329.45885043 464.13544941 334.7319214 468.65356445 339.9543457 C473.20670105 345.21948933 477.61546349 350.5937458 482 356 C483.4159632 357.72974276 484.8326473 359.45889561 486.25 361.1875 C487.83386697 363.12456379 489.41714358 365.06211036 491 367 C491.73524902 367.89960449 491.73524902 367.89960449 492.48535156 368.81738281 C499.56878861 377.48946501 506.58456376 386.20735591 513.46679688 395.04003906 C515.23561258 397.30119392 517.01629929 399.55278292 518.796875 401.8046875 C520.0939164 403.45299408 521.39079309 405.10143027 522.6875 406.75 C523.31261475 407.53745605 523.93772949 408.32491211 524.58178711 409.13623047 C525.44429077 410.23668701 525.44429077 410.23668701 526.32421875 411.359375 C527.0989856 412.34115723 527.0989856 412.34115723 527.8894043 413.34277344 C529 415 529 415 529 417 C529.66 417 530.32 417 531 417 C530.98153317 415.97935486 530.98153317 415.97935486 530.96269327 414.93809062 C530.11861755 367.79035439 529.85892045 320.6574306 529.89646223 273.50280977 C529.90382475 263.98876906 529.90513063 254.4747297 529.90625793 244.96068654 C529.90841515 228.01146751 529.91498183 211.06225346 529.92456055 194.11303711 C529.93382298 177.70581079 529.94085983 161.29858585 529.94506836 144.89135742 C529.94533108 143.87001088 529.94559381 142.84866434 529.94586449 141.79636791 C529.94717008 136.66958489 529.94843366 131.54280187 529.94967639 126.41601884 C529.95994463 84.27734245 529.97746848 42.13867152 530 0 C553.48027104 -0.04690657 576.96053497 -0.08207968 600.44084358 -0.10362434 C611.34534403 -0.11389777 622.24981522 -0.12788204 633.15429688 -0.15087891 C642.66853891 -0.17093413 652.18275973 -0.18374495 661.69702232 -0.18817699 C666.72573659 -0.19076401 671.75439021 -0.19676064 676.78308487 -0.21146011 C725.7949193 -0.34908996 725.7949193 -0.34908996 750.0625 4.625 C751.33053467 4.88297363 752.59856934 5.14094727 753.9050293 5.40673828 C765.12881249 7.81289935 775.52140832 11.36251517 786 16 C787.12535156 16.48339844 787.12535156 16.48339844 788.2734375 16.9765625 C805.37666996 24.35795756 820.41633122 34.48981252 835 46 C835.55751953 46.43892578 836.11503906 46.87785156 836.68945312 47.33007812 C850.52598719 58.34214351 863.16719605 71.0329309 874 85 C874.93589674 86.14950698 875.87491098 87.29648019 876.81640625 88.44140625 C884.07055659 97.29561624 890.70873444 106.44024958 897 116 C897.53351074 116.80791992 898.06702148 117.61583984 898.61669922 118.44824219 C907.53315259 132.01977901 915.64107034 145.95693294 923.45263672 160.18896484 C924.79035613 162.61914808 926.14124902 165.04077881 927.50390625 167.45703125 C934.83052873 180.46605835 941.76422075 193.68649356 948.75209045 206.87919617 C952.31288952 213.59788261 955.90397927 220.30009622 959.5 227 C971.07716233 248.59067598 982.60441358 270.20329311 993.828125 291.98022461 C997.18980137 298.50247064 1000.56998606 305.01343863 1004 311.5 C1008.76503609 320.51490601 1013.44632663 329.57282892 1018.12109375 338.63476562 C1021.46650418 345.1160388 1024.82840427 351.58819364 1028.2088623 358.05126953 C1034.33071154 369.75905515 1040.36939906 381.50710414 1046.36322021 393.28088379 C1061.33552792 422.75138707 1061.33552792 422.75138707 1076.67578125 452.03125 C1081.62868548 461.32850725 1086.30973989 470.71520832 1090.82275391 480.234375 C1127.75603018 561.37252033 1127.75603018 561.37252033 1194 617 C1193.50113281 616.47535156 1193.00226563 615.95070313 1192.48828125 615.41015625 C1185.05847893 607.39343956 1178.5166941 598.76347943 1172 590 C1171.30076416 589.06269043 1171.30076416 589.06269043 1170.58740234 588.10644531 C1145.48547501 554.28587434 1128.05556729 513.79366974 1111.87628174 475.09368896 C1110.94255879 472.86275644 1110.00441676 470.63371253 1109.06591797 468.40478516 C1101.89464632 451.34835758 1094.88666338 434.24950114 1088.6875 416.8125 C1088.24970215 415.58539307 1087.8119043 414.35828613 1087.36083984 413.09399414 C1081.55213301 396.42900653 1078.68083793 380.56863683 1078.78710938 362.93261719 C1078.78940917 361.30000148 1078.79083208 359.66738435 1078.79147339 358.03476715 C1078.7959253 353.50595126 1078.81323413 348.97726057 1078.83261681 344.44848728 C1078.8517651 339.45792261 1078.85913156 334.46733675 1078.86828613 329.47674561 C1078.88934563 319.17650738 1078.92264041 308.87633722 1078.95955706 298.57614493 C1078.99315251 289.15339218 1079.02249302 279.73063383 1079.04980469 270.30786133 C1079.16367245 231.20325636 1079.29983646 192.09875333 1079.44538021 152.99425459 C1079.48859677 141.37572972 1079.53095019 129.75720191 1079.57275391 118.13867188 C1079.5757409 117.3085617 1079.5787279 116.47845153 1079.58180541 115.6231865 C1079.59680085 111.45464053 1079.61178262 107.28609451 1079.62675762 103.11754847 C1079.74905671 69.07835778 1079.87369048 35.03917604 1080 1 C1119.01555668 0.97704234 1158.03111247 0.95945557 1197.04667456 0.94893467 C1201.6671841 0.94768417 1206.28769361 0.94638983 1210.90820312 0.94506836 C1211.82794901 0.94480605 1212.7476949 0.94454374 1213.69531187 0.94427348 C1228.5300094 0.93993843 1243.36470299 0.93206294 1258.19939819 0.9228472 C1273.45470056 0.91345019 1288.7100009 0.90793167 1303.96530604 0.90591151 C1313.35618407 0.90454876 1322.74705099 0.90026666 1332.1379256 0.89208353 C1338.60348383 0.88674122 1345.06903644 0.88521245 1351.53459671 0.88649862 C1355.24836173 0.88713049 1358.96210752 0.88625867 1362.67586899 0.88079453 C1414.17192183 0.80898895 1466.62249105 2.92272816 1516 19 C1516.9271582 19.30164062 1517.85431641 19.60328125 1518.80957031 19.9140625 C1556.19154363 32.22871323 1590.39437554 49.86544345 1620 76 C1620.50772949 76.44456543 1621.01545898 76.88913086 1621.53857422 77.34716797 C1663.29142653 114.05695171 1688.42803354 165.72175606 1698 220 C1698.16371094 220.86044922 1698.32742188 221.72089844 1698.49609375 222.60742188 C1701.07162944 236.41101605 1701.28462809 250.19087177 1701.3125 264.1875 C1701.31617584 265.06807068 1701.31985168 265.94864136 1701.32363892 266.855896 C1701.3627407 284.80884167 1699.9182595 302.34712808 1696.25 319.9375 C1695.98687012 321.21818359 1695.72374023 322.49886719 1695.45263672 323.81835938 C1693.1588368 334.72039828 1690.44810355 345.4067511 1687 356 C1686.71962891 356.86963379 1686.43925781 357.73926758 1686.15039062 358.63525391 C1675.30175276 391.70204582 1657.29808083 422.14572818 1633.3984375 447.44921875 C1631.43163736 449.54094594 1629.5814995 451.66697395 1627.75 453.875 C1618.16509197 464.87819992 1606.70034014 474.34205499 1595 483 C1594.34273926 483.48710449 1593.68547852 483.97420898 1593.00830078 484.47607422 C1556.05269216 511.65368103 1513.09718459 528.74986362 1468.0625 537 C1467.37644684 537.12595551 1466.69039368 537.25191101 1465.98355103 537.38168335 C1453.77617 539.59370547 1441.53057219 541.09305513 1429.1875 542.3125 C1428.37330597 542.39363037 1427.55911194 542.47476074 1426.72024536 542.55834961 C1407.58142647 544.4344529 1388.4908688 545.15720493 1369.265625 545.1328125 C1367.33062732 545.13348993 1365.39562972 545.13446356 1363.46063232 545.13571167 C1359.4302895 545.13717228 1355.39996908 545.13509036 1351.36962891 545.13037109 C1346.30864767 545.12472144 1341.24772008 545.12793303 1336.18674088 545.13394356 C1332.19311146 545.13763405 1328.19949381 545.13637195 1324.20586395 545.13381577 C1322.34553775 545.1331672 1320.48521033 545.1338985 1318.62488556 545.13629532 C1301.39089525 545.15361559 1284.24320772 544.53885024 1267 544 C1267 599.11 1267 654.22 1267 711 C1082.68340512 713.92566024 1082.68340512 713.92566024 1034 688 C1032.98969727 687.46584473 1032.98969727 687.46584473 1031.95898438 686.92089844 C1004.98917802 672.55682612 980.92702725 651.94459488 962 628 C961.16984375 626.98679687 960.3396875 625.97359375 959.484375 624.9296875 C924.44176301 581.8582348 901.41381096 529.10806283 879.16654968 478.67077637 C874.34794125 467.748431 869.43314719 456.87102053 864.5 446 C858.93478714 433.73413249 853.4119319 421.4517964 847.96923828 409.131073 C840.79013598 392.88338112 833.37100463 376.75473512 825.87661743 360.65032959 C825.48163055 359.80150208 825.08664368 358.95267456 824.6796875 358.078125 C824.28639252 357.23300354 823.89309753 356.38788208 823.48788452 355.51715088 C819.49345983 346.92554874 815.55538285 338.30854102 811.625 329.6875 C807.00965555 319.56901228 802.37620385 309.45978719 797.6875 299.375 C796.91865479 297.7209314 796.91865479 297.7209314 796.13427734 296.03344727 C793.71281761 290.82668342 791.28943028 285.62082334 788.86376953 280.41601562 C780.07831747 261.56078275 771.35246848 242.68355948 762.875 223.6875 C762.51705353 222.88562256 762.15910706 222.08374512 761.79031372 221.25756836 C758.63529836 214.18640833 755.48873585 207.11162446 752.36328125 200.02734375 C738.65032686 169.03862444 725.0771522 139.05499767 696 120 C697.12735141 123.38205424 698.59674923 126.54693694 700.09765625 129.7734375 C700.73771013 131.15936187 701.37725716 132.54552039 702.01635742 133.93188477 C702.35089935 134.65739532 702.68544128 135.38290588 703.03012085 136.13040161 C717.26577521 167.08155636 726.34805489 194.59217128 726.24050903 228.89964294 C726.24138261 230.98736389 726.24313638 233.07508462 726.24568737 235.16280419 C726.25013502 240.86393403 726.24219291 246.56498797 726.23213124 252.26610816 C726.22346164 258.42745616 726.22641938 264.58880019 726.22793579 270.75015259 C726.22898243 281.41328005 726.22279923 292.07638047 726.21146011 302.73950005 C726.19960507 313.91657058 726.19192399 325.09363131 726.18975449 336.27070808 C726.18961701 336.96700942 726.18947953 337.66331076 726.18933788 338.38071213 C726.18866117 341.91722033 726.18805842 345.45372855 726.18748413 348.99023677 C726.18328909 374.00562348 726.16983053 399.02099743 726.15087891 424.03637695 C726.1324949 448.3306471 726.1183351 472.62491374 726.10986328 496.91918945 C726.10960023 497.66872668 726.10933718 498.41826392 726.10906615 499.1905144 C726.106429 506.71803024 726.10387739 514.2455461 726.10138843 521.77306199 C726.09631671 537.10595611 726.09067421 552.43884999 726.08468628 567.77174377 C726.0844117 568.47664535 726.08413712 569.18154693 726.08385422 569.90780917 C726.06546896 616.93854487 726.03373871 663.96927307 726 711 C701.9390049 711.30400018 677.87829855 711.53308052 653.81576824 711.67355824 C642.64239402 711.74052581 631.47021459 711.83178331 620.29760742 711.98071289 C610.55676438 712.11049506 600.81678672 712.19420467 591.0751031 712.22315043 C585.91880267 712.240066 580.76497732 712.27966381 575.60947227 712.37449074 C570.75035018 712.46313701 565.8947069 712.48987561 561.03485298 712.47039986 C559.25740475 712.47395902 557.47983309 712.49959433 555.70308685 712.54967117 C541.62387442 712.92682287 541.62387442 712.92682287 536.57059669 708.18683434 C533.68166575 705.01633364 531.35386798 701.57971047 529 698 C527.64294887 696.2773741 526.27153363 694.56577544 524.875 692.875 C524.23691406 692.070625 523.59882812 691.26625 522.94140625 690.4375 C520.17890379 686.96908645 517.36254718 683.54569657 514.55078125 680.1171875 C511.52224436 676.42089398 508.51171492 672.71000173 505.5 669 C501.84117903 664.49352505 498.17874979 659.99023871 494.5 655.5 C490.25045829 650.31305939 486.02344227 645.10800115 481.796875 639.90234375 C478.70520667 636.09554653 475.60795137 632.29352888 472.5 628.5 C468.82124991 624.00976092 465.15888063 619.50642685 461.5 615 C456.34779234 608.65476674 451.18108095 602.32169206 446 596 C440.24831631 588.98208744 434.51724044 581.94779743 428.79785156 574.90356445 C425.70587121 571.09634929 422.60828163 567.29393199 419.5 563.5 C415.25045829 558.31305939 411.02344227 553.10800115 406.796875 547.90234375 C403.70520667 544.09554653 400.60795137 540.29352888 397.5 536.5 C393.82124991 532.00976092 390.15888063 527.50642685 386.5 523 C381.34779234 516.65476674 376.18108095 510.32169206 371 504 C364.77980367 496.41043209 358.58273794 488.80241535 352.3984375 481.18359375 C350.15717397 478.42288746 347.91225796 475.66522 345.6640625 472.91015625 C340.57512612 466.66933479 335.51482038 460.41246917 330.5625 454.0625 C325.80743461 447.96653251 320.90970528 441.9952461 315.98291016 436.03759766 C312.31394513 431.60026299 308.68541787 427.13541374 305.1015625 422.62890625 C300.67274273 417.08876553 296.18192608 411.59842178 291.70556641 406.09667969 C289.50734994 403.39437751 287.31069855 400.6908061 285.11425781 397.98706055 C284.03430256 396.65769639 282.95422357 395.32843276 281.87402344 393.99926758 C279.17598072 390.67931549 276.47923917 387.35832268 273.78515625 384.03515625 C262.327659 369.90702308 250.78871257 355.85335364 239 342 C237.1235208 339.79291869 235.24851658 337.58459674 233.375 335.375 C232.68845337 334.56567017 232.68845337 334.56567017 231.98803711 333.73999023 C229.07523683 330.2971156 226.2139316 326.8168062 223.375 323.3125 C219.80184368 318.91917078 216.0637577 314.7157897 212.25 310.53125 C209.22324753 307.12615348 206.37133807 303.59263027 203.53125 300.03125 C199.81352557 295.57916025 195.88014412 291.31127124 192 287 C192 426.92 192 566.84 192 711 C30 711 30 711 0 710 C0 475.7 0 241.4 0 0 Z " fill="#FEFEFE" transform="translate(650,1209)"/>
<path d="M0 0 C29.9784375 -0.061875 29.9784375 -0.061875 60.5625 -0.125 C69.95891968 -0.15231201 69.95891968 -0.15231201 79.54516602 -0.18017578 C87.31237793 -0.18920898 87.31237793 -0.18920898 90.97129822 -0.19088745 C93.47696141 -0.19391885 95.98262206 -0.20086808 98.48826599 -0.21115112 C142.28984245 -0.38161263 185.05306485 3.26712548 218.1875 34.75 C233.20707225 50.42576716 242.51806254 69.85226101 247 91 C247.27602051 92.26384521 247.27602051 92.26384521 247.55761719 93.55322266 C249.35805415 102.83943363 249.39884197 112.07689242 249.375 121.5 C249.37412384 122.34382233 249.37324768 123.18764465 249.37234497 124.05703735 C249.32886723 136.74155481 248.82726676 148.81116542 245 161 C244.75862305 161.78777832 244.51724609 162.57555664 244.26855469 163.38720703 C234.87977632 193.14195809 217.37128844 215.00321149 190 230 C161.40255964 244.72531183 128.9775063 246.17198656 97.48046875 246.1328125 C95.52777596 246.13348904 93.57508325 246.13446195 91.62239075 246.13571167 C87.54716178 246.13717605 83.47195489 246.13507756 79.39672852 246.13037109 C74.25891164 246.12471671 69.12114752 246.12793356 63.98333263 246.13394356 C59.95129526 246.13761968 55.91926963 246.13637823 51.88723183 246.13381577 C49.99765326 246.13316358 48.1080735 246.13391258 46.21849632 246.13629532 C30.77805176 246.15148208 15.44991372 245.57221903 0 245 C0 164.15 0 83.3 0 0 Z " fill="#1D1D1D" transform="translate(1917,1359)"/>
<path d="M0 0 C3.34998521 1.11666174 3.79340222 1.74694925 5.6875 4.5625 C6.34298828 5.52349609 6.34298828 5.52349609 7.01171875 6.50390625 C7.33785156 6.99761719 7.66398437 7.49132813 8 8 C4.08788267 6.84414715 1.1254959 5.64465038 -2 3 C-1.34 2.01 -0.68 1.02 0 0 Z " fill="#2F2F2F" transform="translate(1837,1819)"/>
<path d="M0 0 C0.66 0.33 1.32 0.66 2 1 C-0.33333333 3.33333333 -2.66666667 5.66666667 -5 8 C-5.515625 8.5465625 -6.03125 9.093125 -6.5625 9.65625 C-8.48357229 11.45203496 -10.54201213 12.13638264 -13 13 C-8.66666667 8.66666667 -4.33333333 4.33333333 0 0 Z " fill="#333333" transform="translate(2267,1672)"/>
</svg>
