<svg version="1.1" xmlns="http://www.w3.org/2000/svg" style="display: block;" viewBox="0 0 2048 2048" width="1024" height="1024">
<path transform="translate(0,0)" fill="rgb(226,226,226)" d="M 0 0 L 2048 0 L 2048 2048 L 0 2048 L 0 0 z M 416.017 773.735 L 415.713 1228.38 A 5285.11 5285.11 0 0 0 539.019 1228.74 L 539.061 1051.86 C 539.003 1020.22 540.062 988.028 538.252 956.456 C 572.225 994.624 604.292 1035.11 636.374 1074.88 L 761.982 1228.96 L 881.061 1228.69 L 880.855 998.875 L 880.583 936.093 C 880.53 924.426 881.34 911.772 879.563 900.252 C 876.929 883.174 867.68 865.313 860.3 849.751 C 868.396 854.517 874.05 859.143 879.378 866.949 C 892.04 885.499 900.416 908.553 909.913 928.907 A 9744.5 9744.5 0 0 1 967.66 1054.84 C 985.735 1094.36 1003.96 1141.11 1031.35 1174.96 C 1048 1195.54 1067.78 1211.2 1092.68 1220.61 C 1125.75 1233.12 1190.3 1228.74 1227.08 1228.61 L 1226.93 1121.76 C 1295.92 1122.36 1368.18 1128.85 1428.62 1088.5 C 1467.87 1061.43 1493.02 1024.9 1501.62 977.514 C 1509.84 932.251 1501.97 885.849 1475.43 847.863 C 1448.15 808.813 1402.96 786.98 1356.92 779.169 C 1320.58 773.004 1283.23 774.557 1246.5 774.56 L 1106.9 774.682 L 1107.02 945.955 C 1107.03 966.83 1104.69 1003.62 1107.81 1021.95 C 1111.56 1044.03 1142.82 1113.71 1154.98 1134.28 C 1162.44 1146.9 1171.49 1158.67 1181.2 1169.64 C 1166.82 1163.88 1156.96 1154.03 1147.85 1141.73 C 1132 1120.32 1120.43 1093.67 1108.23 1069.96 C 1081.84 1018.66 1055.86 967.242 1028.44 916.478 C 1011.59 885.304 995.669 851.986 972.482 824.964 C 956.958 806.874 938.117 791.764 915.851 782.894 A 120.03 120.03 0 0 0 886.777 775.429 C 869.597 773.28 851.874 774.121 834.577 774.115 L 755.449 774.107 L 755.423 966.056 C 755.403 991.059 756.137 1016.19 755.57 1041.17 C 736.124 1015.52 715.173 991.041 694.828 966.106 L 618.305 871.719 A 4640.22 4640.22 0 0 1 538.481 773.58 L 416.017 773.735 z"/>
<path transform="translate(0,0)" fill="rgb(0,0,0)" d="M 415.713 1228.38 L 416.017 773.735 L 538.481 773.58 A 4640.22 4640.22 0 0 0 618.305 871.719 L 694.828 966.106 C 715.173 991.041 736.124 1015.52 755.57 1041.17 C 756.137 1016.19 755.403 991.059 755.423 966.056 L 755.449 774.107 L 834.577 774.115 C 851.874 774.121 869.597 773.28 886.777 775.429 A 120.03 120.03 0 0 1 915.851 782.894 C 938.117 791.764 956.958 806.874 972.482 824.964 C 995.669 851.986 1011.59 885.304 1028.44 916.478 C 1055.86 967.242 1081.84 1018.66 1108.23 1069.96 C 1120.43 1093.67 1132 1120.32 1147.85 1141.73 C 1156.96 1154.03 1166.82 1163.88 1181.2 1169.64 C 1171.49 1158.67 1162.44 1146.9 1154.98 1134.28 C 1142.82 1113.71 1111.56 1044.03 1107.81 1021.95 C 1104.69 1003.62 1107.03 966.83 1107.02 945.955 L 1106.9 774.682 L 1246.5 774.56 C 1283.23 774.557 1320.58 773.004 1356.92 779.169 C 1402.96 786.98 1448.15 808.813 1475.43 847.863 C 1501.97 885.849 1509.84 932.251 1501.62 977.514 C 1493.02 1024.9 1467.87 1061.43 1428.62 1088.5 C 1368.18 1128.85 1295.92 1122.36 1226.93 1121.76 L 1227.08 1228.61 C 1190.3 1228.74 1125.75 1233.12 1092.68 1220.61 C 1067.78 1211.2 1048 1195.54 1031.35 1174.96 C 1003.96 1141.11 985.735 1094.36 967.66 1054.84 A 9744.5 9744.5 0 0 0 909.913 928.907 C 900.416 908.553 892.04 885.499 879.378 866.949 C 874.05 859.143 868.396 854.517 860.3 849.751 C 867.68 865.313 876.929 883.174 879.563 900.252 C 881.34 911.772 880.53 924.426 880.583 936.093 L 880.855 998.875 L 881.061 1228.69 L 761.982 1228.96 L 636.374 1074.88 C 604.292 1035.11 572.225 994.624 538.252 956.456 C 540.062 988.028 539.003 1020.22 539.061 1051.86 L 539.019 1228.74 A 5285.11 5285.11 0 0 1 415.713 1228.38 z M 1226.64 869.811 L 1226.95 1026.51 L 1276.83 1026.96 C 1309.15 1027.15 1339.68 1027.85 1365.16 1004.98 C 1381.28 987.209 1387.51 966.654 1386.26 942.753 C 1385.21 922.588 1378.49 903.17 1363.2 889.445 C 1339.98 868.59 1308.14 870.035 1278.93 869.985 A 4119.99 4119.99 0 0 1 1226.64 869.811 z"/>
<path transform="translate(0,0)" fill="rgb(226,226,226)" d="M 1226.95 1026.51 L 1226.64 869.811 A 4119.99 4119.99 0 0 0 1278.93 869.985 C 1308.14 870.035 1339.98 868.59 1363.2 889.445 C 1378.49 903.17 1385.21 922.588 1386.26 942.753 C 1387.51 966.654 1381.28 987.209 1365.16 1004.98 C 1339.68 1027.85 1309.15 1027.15 1276.83 1026.96 L 1226.95 1026.51 z"/>
</svg>